<?xml version="1.0" encoding="UTF-8"?>
<svg xmlns="http://www.w3.org/2000/svg" xmlns:xlink="http://www.w3.org/1999/xlink" width="854" height="480" viewBox="0 0 854 480">
<defs>
<g>
<g id="glyph-0-0">
<path d="M 9.25 0 L 5.410156 0 L 5.410156 -0.460938 C 5.75 -0.484375 6.03125 -0.527344 6.253906 -0.59375 C 6.476562 -0.65625 6.589844 -0.738281 6.589844 -0.832031 C 6.589844 -0.871094 6.585938 -0.921875 6.578125 -0.976562 C 6.566406 -1.03125 6.554688 -1.082031 6.539062 -1.125 L 5.773438 -3.195312 L 2.53125 -3.195312 C 2.40625 -2.894531 2.308594 -2.628906 2.234375 -2.402344 C 2.15625 -2.175781 2.089844 -1.96875 2.027344 -1.777344 C 1.972656 -1.589844 1.933594 -1.4375 1.910156 -1.320312 C 1.886719 -1.203125 1.878906 -1.109375 1.878906 -1.035156 C 1.878906 -0.863281 2.015625 -0.726562 2.289062 -0.632812 C 2.5625 -0.535156 2.871094 -0.480469 3.210938 -0.460938 L 3.210938 0 L -0.265625 0 L -0.265625 -0.460938 C -0.152344 -0.472656 -0.0117188 -0.496094 0.15625 -0.539062 C 0.324219 -0.578125 0.464844 -0.632812 0.574219 -0.703125 C 0.746094 -0.820312 0.882812 -0.941406 0.976562 -1.070312 C 1.070312 -1.199219 1.164062 -1.375 1.257812 -1.601562 C 1.722656 -2.761719 2.234375 -4.0625 2.792969 -5.507812 C 3.351562 -6.953125 3.851562 -8.238281 4.289062 -9.367188 L 4.8125 -9.367188 L 7.890625 -1.398438 C 7.957031 -1.230469 8.03125 -1.09375 8.113281 -0.988281 C 8.195312 -0.886719 8.308594 -0.785156 8.457031 -0.683594 C 8.558594 -0.621094 8.6875 -0.570312 8.847656 -0.53125 C 9.007812 -0.488281 9.144531 -0.464844 9.25 -0.460938 L 9.25 0 M 5.535156 -3.777344 L 4.136719 -7.359375 L 2.757812 -3.777344 Z "/>
</g>
<g id="glyph-0-1">
<path d="M 7.558594 0 L 4.421875 0 L 4.421875 -0.429688 C 4.519531 -0.4375 4.628906 -0.445312 4.75 -0.457031 C 4.867188 -0.464844 4.96875 -0.480469 5.046875 -0.507812 C 5.167969 -0.546875 5.257812 -0.617188 5.316406 -0.710938 C 5.375 -0.808594 5.402344 -0.9375 5.402344 -1.09375 L 5.402344 -4.394531 C 5.402344 -4.851562 5.296875 -5.203125 5.082031 -5.449219 C 4.867188 -5.695312 4.601562 -5.820312 4.292969 -5.820312 C 4.0625 -5.820312 3.851562 -5.785156 3.660156 -5.710938 C 3.46875 -5.640625 3.300781 -5.554688 3.152344 -5.449219 C 3.007812 -5.347656 2.894531 -5.242188 2.808594 -5.125 C 2.726562 -5.011719 2.664062 -4.917969 2.625 -4.851562 L 2.625 -1.160156 C 2.625 -1.011719 2.652344 -0.890625 2.714844 -0.792969 C 2.777344 -0.699219 2.867188 -0.625 2.988281 -0.574219 C 3.078125 -0.53125 3.179688 -0.496094 3.285156 -0.476562 C 3.390625 -0.453125 3.5 -0.4375 3.613281 -0.429688 L 3.613281 0 L 0.46875 0 L 0.46875 -0.429688 C 0.570312 -0.4375 0.671875 -0.445312 0.777344 -0.457031 C 0.882812 -0.464844 0.976562 -0.480469 1.054688 -0.507812 C 1.175781 -0.546875 1.265625 -0.613281 1.324219 -0.710938 C 1.382812 -0.808594 1.414062 -0.9375 1.414062 -1.09375 L 1.414062 -5.054688 C 1.414062 -5.199219 1.382812 -5.335938 1.316406 -5.460938 C 1.253906 -5.582031 1.167969 -5.683594 1.054688 -5.761719 C 0.972656 -5.8125 0.875 -5.851562 0.761719 -5.875 C 0.648438 -5.898438 0.527344 -5.914062 0.398438 -5.925781 L 0.398438 -6.355469 L 2.53125 -6.496094 L 2.625 -6.40625 L 2.625 -5.5 L 2.65625 -5.5 C 2.761719 -5.605469 2.890625 -5.730469 3.046875 -5.875 C 3.203125 -6.019531 3.351562 -6.140625 3.488281 -6.230469 C 3.648438 -6.335938 3.839844 -6.421875 4.0625 -6.492188 C 4.285156 -6.558594 4.535156 -6.59375 4.8125 -6.59375 C 5.425781 -6.59375 5.882812 -6.402344 6.179688 -6.019531 C 6.480469 -5.632812 6.628906 -5.125 6.628906 -4.484375 L 6.628906 -1.144531 C 6.628906 -0.992188 6.652344 -0.871094 6.707031 -0.777344 C 6.757812 -0.683594 6.847656 -0.613281 6.972656 -0.558594 C 7.078125 -0.515625 7.167969 -0.484375 7.242188 -0.46875 C 7.320312 -0.453125 7.425781 -0.4375 7.558594 -0.429688 Z "/>
</g>
<g id="glyph-0-2">
<path d="M 7.5 -0.117188 L 5.253906 0.0273438 L 5.15625 -0.0664062 L 5.15625 -0.664062 L 5.105469 -0.675781 C 4.878906 -0.425781 4.601562 -0.21875 4.269531 -0.0585938 C 3.9375 0.101562 3.597656 0.183594 3.246094 0.183594 C 2.878906 0.183594 2.527344 0.101562 2.1875 -0.0625 C 1.847656 -0.222656 1.550781 -0.453125 1.300781 -0.75 C 1.046875 -1.046875 0.84375 -1.410156 0.691406 -1.828125 C 0.542969 -2.25 0.46875 -2.714844 0.46875 -3.222656 C 0.46875 -3.6875 0.550781 -4.128906 0.710938 -4.542969 C 0.871094 -4.960938 1.089844 -5.324219 1.371094 -5.636719 C 1.636719 -5.929688 1.960938 -6.160156 2.34375 -6.335938 C 2.726562 -6.507812 3.117188 -6.59375 3.519531 -6.59375 C 3.816406 -6.59375 4.109375 -6.558594 4.398438 -6.480469 C 4.6875 -6.40625 4.933594 -6.308594 5.144531 -6.191406 L 5.144531 -8.429688 C 5.144531 -8.613281 5.113281 -8.777344 5.050781 -8.929688 C 4.992188 -9.078125 4.90625 -9.191406 4.796875 -9.269531 C 4.675781 -9.351562 4.511719 -9.414062 4.304688 -9.449219 C 4.101562 -9.488281 3.878906 -9.515625 3.640625 -9.53125 L 3.640625 -9.933594 L 6.269531 -10.078125 L 6.367188 -9.980469 L 6.367188 -1.328125 C 6.367188 -1.175781 6.394531 -1.046875 6.453125 -0.941406 C 6.511719 -0.835938 6.597656 -0.746094 6.710938 -0.671875 C 6.792969 -0.617188 6.914062 -0.585938 7.070312 -0.574219 C 7.226562 -0.558594 7.371094 -0.550781 7.5 -0.546875 L 7.5 -0.117188 M 5.144531 -1.242188 L 5.144531 -5 C 5.109375 -5.113281 5.050781 -5.234375 4.972656 -5.363281 C 4.894531 -5.496094 4.800781 -5.613281 4.683594 -5.722656 C 4.554688 -5.832031 4.410156 -5.921875 4.238281 -5.992188 C 4.070312 -6.0625 3.875 -6.101562 3.648438 -6.101562 C 3.390625 -6.101562 3.148438 -6.03125 2.929688 -5.898438 C 2.710938 -5.765625 2.519531 -5.570312 2.347656 -5.320312 C 2.1875 -5.074219 2.0625 -4.765625 1.96875 -4.390625 C 1.875 -4.015625 1.828125 -3.601562 1.828125 -3.144531 C 1.828125 -2.78125 1.863281 -2.449219 1.933594 -2.152344 C 2.003906 -1.855469 2.121094 -1.578125 2.285156 -1.320312 C 2.4375 -1.078125 2.628906 -0.882812 2.867188 -0.734375 C 3.101562 -0.589844 3.382812 -0.515625 3.707031 -0.515625 C 4.054688 -0.515625 4.339844 -0.589844 4.566406 -0.742188 C 4.796875 -0.894531 4.988281 -1.0625 5.144531 -1.242188 Z "/>
</g>
</g>
</defs>
<g fill="rgb(22.745098%, 22.745098%, 26.666667%)" fill-opacity="1">
<use xlink:href="#glyph-0-0" x="30" y="32.226562"/>
<use xlink:href="#glyph-0-1" x="39" y="32.226562"/>
<use xlink:href="#glyph-0-2" x="47" y="32.226562"/>
</g>
</svg>
