<?xml version="1.0" encoding="UTF-8"?>
<svg xmlns="http://www.w3.org/2000/svg" xmlns:xlink="http://www.w3.org/1999/xlink" width="1920" height="1080" viewBox="0 0 1920 1080">
<defs>
<g>
<g id="glyph-0-0">
<path d="M 4.433594 -0.28125 C 4.152344 -0.164062 3.882812 -0.0625 3.632812 0.015625 C 3.382812 0.0976562 3.074219 0.136719 2.707031 0.136719 C 2.171875 0.136719 1.792969 0 1.570312 -0.269531 C 1.351562 -0.542969 1.242188 -0.925781 1.242188 -1.417969 L 1.242188 -5.769531 L 0.0859375 -5.769531 L 0.0859375 -6.394531 L 1.269531 -6.394531 L 1.269531 -8.390625 L 2.453125 -8.390625 L 2.453125 -6.394531 L 4.296875 -6.394531 L 4.296875 -5.769531 L 2.46875 -5.769531 L 2.46875 -2.179688 C 2.46875 -1.910156 2.476562 -1.6875 2.496094 -1.507812 C 2.515625 -1.328125 2.5625 -1.167969 2.636719 -1.035156 C 2.707031 -0.910156 2.808594 -0.8125 2.949219 -0.75 C 3.089844 -0.683594 3.273438 -0.652344 3.507812 -0.652344 C 3.617188 -0.652344 3.777344 -0.660156 3.988281 -0.679688 C 4.199219 -0.699219 4.347656 -0.726562 4.433594 -0.753906 Z "/>
</g>
<g id="glyph-0-1">
<path d="M 7.453125 0 L 4.296875 0 L 4.296875 -0.429688 C 4.398438 -0.4375 4.507812 -0.445312 4.628906 -0.457031 C 4.75 -0.464844 4.851562 -0.480469 4.929688 -0.507812 C 5.050781 -0.546875 5.140625 -0.617188 5.199219 -0.710938 C 5.257812 -0.808594 5.285156 -0.9375 5.285156 -1.09375 L 5.285156 -4.394531 C 5.285156 -4.851562 5.179688 -5.203125 4.964844 -5.449219 C 4.75 -5.695312 4.484375 -5.820312 4.175781 -5.820312 C 3.949219 -5.820312 3.742188 -5.785156 3.546875 -5.710938 C 3.355469 -5.640625 3.179688 -5.554688 3.027344 -5.449219 C 2.878906 -5.339844 2.765625 -5.230469 2.6875 -5.125 C 2.609375 -5.015625 2.550781 -4.925781 2.507812 -4.851562 L 2.507812 -1.160156 C 2.507812 -1.011719 2.535156 -0.890625 2.59375 -0.792969 C 2.652344 -0.699219 2.742188 -0.625 2.863281 -0.574219 C 2.960938 -0.53125 3.058594 -0.496094 3.160156 -0.476562 C 3.261719 -0.453125 3.375 -0.4375 3.496094 -0.429688 L 3.496094 0 L 0.351562 0 L 0.351562 -0.429688 C 0.449219 -0.4375 0.554688 -0.449219 0.660156 -0.457031 C 0.769531 -0.46875 0.859375 -0.484375 0.933594 -0.507812 C 1.054688 -0.546875 1.144531 -0.617188 1.203125 -0.714844 C 1.265625 -0.8125 1.296875 -0.9375 1.296875 -1.09375 L 1.296875 -8.574219 C 1.296875 -8.722656 1.261719 -8.867188 1.195312 -9.015625 C 1.128906 -9.164062 1.039062 -9.273438 0.929688 -9.347656 C 0.851562 -9.40625 0.714844 -9.445312 0.515625 -9.46875 C 0.320312 -9.492188 0.160156 -9.507812 0.0390625 -9.519531 L 0.0390625 -9.933594 L 2.414062 -10.078125 L 2.507812 -9.980469 L 2.507812 -5.5 L 2.53125 -5.5 C 2.675781 -5.644531 2.804688 -5.769531 2.925781 -5.882812 C 3.042969 -5.992188 3.195312 -6.109375 3.386719 -6.230469 C 3.550781 -6.335938 3.746094 -6.421875 3.96875 -6.492188 C 4.195312 -6.558594 4.445312 -6.59375 4.722656 -6.59375 C 5.296875 -6.59375 5.738281 -6.414062 6.046875 -6.050781 C 6.355469 -5.6875 6.511719 -5.167969 6.511719 -4.484375 L 6.511719 -1.144531 C 6.511719 -0.992188 6.539062 -0.871094 6.59375 -0.777344 C 6.648438 -0.683594 6.738281 -0.613281 6.863281 -0.558594 C 6.964844 -0.519531 7.054688 -0.492188 7.136719 -0.472656 C 7.21875 -0.453125 7.324219 -0.4375 7.453125 -0.429688 Z "/>
</g>
<g id="glyph-0-2">
<path d="M 6.171875 -1.511719 C 5.902344 -1 5.542969 -0.589844 5.089844 -0.285156 C 4.640625 0.015625 4.121094 0.167969 3.535156 0.167969 C 3.019531 0.167969 2.566406 0.078125 2.179688 -0.105469 C 1.789062 -0.285156 1.46875 -0.535156 1.21875 -0.847656 C 0.964844 -1.160156 0.777344 -1.523438 0.652344 -1.941406 C 0.53125 -2.355469 0.46875 -2.796875 0.46875 -3.261719 C 0.46875 -3.679688 0.535156 -4.085938 0.667969 -4.488281 C 0.800781 -4.890625 0.992188 -5.25 1.25 -5.574219 C 1.496094 -5.882812 1.804688 -6.128906 2.171875 -6.316406 C 2.539062 -6.507812 2.949219 -6.601562 3.40625 -6.601562 C 3.875 -6.601562 4.273438 -6.527344 4.609375 -6.378906 C 4.945312 -6.234375 5.214844 -6.03125 5.421875 -5.773438 C 5.621094 -5.53125 5.769531 -5.246094 5.867188 -4.914062 C 5.964844 -4.585938 6.015625 -4.226562 6.015625 -3.839844 L 6.015625 -3.410156 L 1.765625 -3.410156 C 1.765625 -2.988281 1.804688 -2.605469 1.882812 -2.261719 C 1.964844 -1.917969 2.09375 -1.617188 2.265625 -1.355469 C 2.433594 -1.105469 2.65625 -0.90625 2.929688 -0.757812 C 3.203125 -0.613281 3.527344 -0.539062 3.90625 -0.539062 C 4.292969 -0.539062 4.625 -0.632812 4.90625 -0.8125 C 5.183594 -0.992188 5.457031 -1.320312 5.714844 -1.789062 L 6.171875 -1.511719 M 4.734375 -3.957031 C 4.734375 -4.199219 4.710938 -4.460938 4.671875 -4.738281 C 4.628906 -5.015625 4.5625 -5.246094 4.472656 -5.433594 C 4.371094 -5.628906 4.234375 -5.792969 4.0625 -5.917969 C 3.890625 -6.042969 3.664062 -6.105469 3.390625 -6.105469 C 2.9375 -6.105469 2.558594 -5.917969 2.257812 -5.539062 C 1.953125 -5.160156 1.789062 -4.632812 1.765625 -3.957031 Z "/>
</g>
<g id="glyph-0-3">
<path d="M 4.707031 -3.144531 C 4.886719 -2.988281 5.023438 -2.808594 5.117188 -2.605469 C 5.210938 -2.398438 5.261719 -2.152344 5.261719 -1.855469 C 5.261719 -1.261719 5.039062 -0.773438 4.59375 -0.398438 C 4.148438 -0.0195312 3.570312 0.167969 2.863281 0.167969 C 2.492188 0.167969 2.148438 0.101562 1.832031 -0.03125 C 1.519531 -0.167969 1.292969 -0.289062 1.160156 -0.402344 L 1.027344 0.0195312 L 0.539062 0.0195312 L 0.476562 -2.214844 L 0.925781 -2.214844 C 0.960938 -2.042969 1.03125 -1.84375 1.144531 -1.617188 C 1.257812 -1.390625 1.394531 -1.1875 1.554688 -1.003906 C 1.726562 -0.8125 1.929688 -0.652344 2.164062 -0.523438 C 2.402344 -0.390625 2.667969 -0.324219 2.960938 -0.324219 C 3.378906 -0.324219 3.699219 -0.421875 3.925781 -0.609375 C 4.152344 -0.800781 4.265625 -1.070312 4.265625 -1.425781 C 4.265625 -1.609375 4.226562 -1.765625 4.15625 -1.898438 C 4.085938 -2.03125 3.980469 -2.144531 3.839844 -2.246094 C 3.699219 -2.347656 3.523438 -2.4375 3.3125 -2.515625 C 3.105469 -2.597656 2.875 -2.675781 2.617188 -2.753906 C 2.414062 -2.816406 2.1875 -2.898438 1.9375 -3.003906 C 1.6875 -3.109375 1.472656 -3.234375 1.296875 -3.378906 C 1.105469 -3.53125 0.949219 -3.71875 0.828125 -3.9375 C 0.707031 -4.160156 0.644531 -4.421875 0.644531 -4.71875 C 0.644531 -5.246094 0.839844 -5.691406 1.230469 -6.054688 C 1.621094 -6.417969 2.144531 -6.601562 2.800781 -6.601562 C 3.050781 -6.601562 3.308594 -6.570312 3.570312 -6.503906 C 3.832031 -6.4375 4.046875 -6.359375 4.210938 -6.269531 L 4.363281 -6.609375 L 4.832031 -6.609375 L 4.929688 -4.542969 L 4.480469 -4.542969 C 4.386719 -5.007812 4.191406 -5.382812 3.890625 -5.671875 C 3.589844 -5.960938 3.21875 -6.105469 2.785156 -6.105469 C 2.429688 -6.105469 2.152344 -6.015625 1.945312 -5.839844 C 1.742188 -5.660156 1.640625 -5.441406 1.640625 -5.1875 C 1.640625 -4.992188 1.675781 -4.832031 1.742188 -4.699219 C 1.808594 -4.570312 1.910156 -4.460938 2.042969 -4.367188 C 2.175781 -4.28125 2.339844 -4.199219 2.535156 -4.125 C 2.734375 -4.046875 2.976562 -3.960938 3.269531 -3.867188 C 3.554688 -3.777344 3.824219 -3.667969 4.078125 -3.546875 C 4.332031 -3.425781 4.542969 -3.292969 4.707031 -3.144531 Z "/>
</g>
<g id="glyph-0-4">
</g>
<g id="glyph-0-5">
<path d="M 6.984375 -3.214844 C 6.984375 -2.253906 6.683594 -1.441406 6.074219 -0.789062 C 5.464844 -0.132812 4.761719 0.195312 3.957031 0.195312 C 3.605469 0.195312 3.261719 0.140625 2.917969 0.03125 C 2.578125 -0.0742188 2.257812 -0.222656 1.960938 -0.402344 L 1.476562 0.34375 L 1.074219 0.253906 C 1.097656 -0.0664062 1.109375 -0.453125 1.121094 -0.90625 C 1.128906 -1.359375 1.132812 -1.792969 1.132812 -2.214844 L 1.132812 -8.574219 C 1.132812 -8.722656 1.097656 -8.867188 1.03125 -9.015625 C 0.964844 -9.164062 0.878906 -9.269531 0.773438 -9.335938 C 0.691406 -9.390625 0.554688 -9.433594 0.359375 -9.460938 C 0.167969 -9.492188 0.0117188 -9.507812 -0.105469 -9.519531 L -0.105469 -9.933594 L 2.253906 -10.078125 L 2.34375 -9.980469 L 2.34375 -5.75 L 2.390625 -5.734375 C 2.660156 -6.023438 2.953125 -6.238281 3.269531 -6.378906 C 3.589844 -6.523438 3.902344 -6.59375 4.210938 -6.59375 C 5.003906 -6.59375 5.660156 -6.28125 6.191406 -5.65625 C 6.722656 -5.03125 6.984375 -4.21875 6.984375 -3.214844 M 5.625 -3.171875 C 5.625 -3.492188 5.589844 -3.820312 5.519531 -4.152344 C 5.453125 -4.488281 5.34375 -4.777344 5.195312 -5.027344 C 5.046875 -5.277344 4.855469 -5.480469 4.617188 -5.636719 C 4.378906 -5.792969 4.089844 -5.871094 3.757812 -5.871094 C 3.453125 -5.871094 3.1875 -5.8125 2.957031 -5.691406 C 2.730469 -5.574219 2.527344 -5.414062 2.34375 -5.207031 L 2.34375 -1.472656 C 2.371094 -1.367188 2.421875 -1.246094 2.496094 -1.105469 C 2.574219 -0.96875 2.675781 -0.835938 2.804688 -0.710938 C 2.9375 -0.589844 3.082031 -0.488281 3.25 -0.414062 C 3.414062 -0.335938 3.617188 -0.300781 3.855469 -0.300781 C 4.382812 -0.300781 4.8125 -0.554688 5.136719 -1.066406 C 5.460938 -1.578125 5.625 -2.28125 5.625 -3.171875 Z "/>
</g>
<g id="glyph-0-6">
<path d="M 3.582031 0 L 0.480469 0 L 0.480469 -0.429688 C 0.582031 -0.4375 0.683594 -0.445312 0.789062 -0.457031 C 0.898438 -0.464844 0.988281 -0.480469 1.066406 -0.507812 C 1.1875 -0.546875 1.277344 -0.613281 1.335938 -0.710938 C 1.394531 -0.808594 1.425781 -0.9375 1.425781 -1.09375 L 1.425781 -5.054688 C 1.425781 -5.191406 1.394531 -5.320312 1.332031 -5.433594 C 1.269531 -5.546875 1.179688 -5.644531 1.066406 -5.722656 C 0.984375 -5.773438 0.867188 -5.820312 0.710938 -5.855469 C 0.554688 -5.894531 0.410156 -5.914062 0.28125 -5.925781 L 0.28125 -6.355469 L 2.546875 -6.496094 L 2.636719 -6.40625 L 2.636719 -1.171875 C 2.636719 -1.019531 2.664062 -0.894531 2.722656 -0.792969 C 2.78125 -0.695312 2.875 -0.621094 3 -0.574219 C 3.09375 -0.535156 3.1875 -0.503906 3.277344 -0.476562 C 3.367188 -0.453125 3.46875 -0.4375 3.582031 -0.429688 L 3.582031 0 M 2.765625 -9.03125 C 2.765625 -8.78125 2.683594 -8.566406 2.523438 -8.382812 C 2.359375 -8.199219 2.160156 -8.105469 1.921875 -8.105469 C 1.699219 -8.105469 1.507812 -8.195312 1.34375 -8.367188 C 1.179688 -8.546875 1.101562 -8.746094 1.101562 -8.972656 C 1.101562 -9.210938 1.179688 -9.417969 1.34375 -9.597656 C 1.507812 -9.773438 1.699219 -9.863281 1.921875 -9.863281 C 2.167969 -9.863281 2.371094 -9.78125 2.527344 -9.613281 C 2.6875 -9.445312 2.765625 -9.25 2.765625 -9.03125 Z "/>
</g>
<g id="glyph-0-7">
<path d="M 3.476562 0 L 0.34375 0 L 0.34375 -0.429688 C 0.445312 -0.4375 0.550781 -0.449219 0.664062 -0.457031 C 0.777344 -0.46875 0.871094 -0.484375 0.945312 -0.507812 C 1.066406 -0.546875 1.15625 -0.617188 1.21875 -0.714844 C 1.277344 -0.8125 1.308594 -0.9375 1.308594 -1.09375 L 1.308594 -8.535156 C 1.308594 -8.691406 1.273438 -8.835938 1.207031 -8.972656 C 1.140625 -9.109375 1.050781 -9.21875 0.945312 -9.296875 C 0.867188 -9.347656 0.722656 -9.398438 0.515625 -9.441406 C 0.304688 -9.484375 0.140625 -9.507812 0.0117188 -9.519531 L 0.0117188 -9.933594 L 2.429688 -10.078125 L 2.519531 -9.980469 L 2.519531 -1.171875 C 2.519531 -1.019531 2.546875 -0.894531 2.605469 -0.796875 C 2.660156 -0.699219 2.75 -0.625 2.878906 -0.574219 C 2.972656 -0.53125 3.066406 -0.496094 3.160156 -0.476562 C 3.253906 -0.453125 3.359375 -0.4375 3.476562 -0.429688 Z "/>
</g>
</g>
</defs>
<g fill="rgb(100%, 100%, 100%)" fill-opacity="1">
<use xlink:href="#glyph-0-0" x="30" y="32.226562"/>
<use xlink:href="#glyph-0-1" x="35" y="32.226562"/>
<use xlink:href="#glyph-0-2" x="43" y="32.226562"/>
<use xlink:href="#glyph-0-3" x="49" y="32.226562"/>
<use xlink:href="#glyph-0-2" x="55" y="32.226562"/>
<use xlink:href="#glyph-0-4" x="61" y="32.226562"/>
<use xlink:href="#glyph-0-5" x="64" y="32.226562"/>
<use xlink:href="#glyph-0-6" x="71" y="32.226562"/>
<use xlink:href="#glyph-0-7" x="75" y="32.226562"/>
<use xlink:href="#glyph-0-7" x="79" y="32.226562"/>
<use xlink:href="#glyph-0-3" x="83" y="32.226562"/>
</g>
</svg>
