<?xml version="1.0" encoding="UTF-8"?>
<svg xmlns="http://www.w3.org/2000/svg" xmlns:xlink="http://www.w3.org/1999/xlink" width="1920" height="1080" viewBox="0 0 1920 1080">
<defs>
<g>
<g id="glyph-0-0">
<path d="M 9.601562 0 L 7.011719 0 C 6.511719 -0.773438 5.957031 -1.539062 5.347656 -2.300781 C 4.738281 -3.0625 4.097656 -3.800781 3.429688 -4.519531 L 3.261719 -4.519531 L 3.261719 -1.300781 C 3.261719 -1.160156 3.289062 -1.03125 3.34375 -0.917969 C 3.398438 -0.804688 3.496094 -0.714844 3.640625 -0.644531 C 3.707031 -0.613281 3.835938 -0.578125 4.027344 -0.535156 C 4.214844 -0.492188 4.371094 -0.464844 4.5 -0.460938 L 4.5 0 L 0.664062 0 L 0.664062 -0.460938 C 0.765625 -0.472656 0.910156 -0.484375 1.101562 -0.5 C 1.292969 -0.519531 1.425781 -0.542969 1.503906 -0.578125 C 1.632812 -0.636719 1.726562 -0.71875 1.785156 -0.828125 C 1.84375 -0.941406 1.875 -1.074219 1.875 -1.230469 L 1.875 -7.898438 C 1.875 -8.042969 1.851562 -8.171875 1.800781 -8.28125 C 1.75 -8.390625 1.652344 -8.480469 1.503906 -8.546875 C 1.386719 -8.605469 1.246094 -8.65625 1.085938 -8.699219 C 0.925781 -8.742188 0.785156 -8.765625 0.664062 -8.777344 L 0.664062 -9.238281 L 4.5 -9.238281 L 4.5 -8.777344 C 4.378906 -8.773438 4.226562 -8.753906 4.042969 -8.71875 C 3.859375 -8.683594 3.726562 -8.648438 3.640625 -8.621094 C 3.492188 -8.566406 3.390625 -8.480469 3.339844 -8.359375 C 3.289062 -8.238281 3.261719 -8.105469 3.261719 -7.960938 L 3.261719 -4.773438 L 3.390625 -4.773438 C 3.78125 -5.101562 4.167969 -5.445312 4.542969 -5.804688 C 4.921875 -6.160156 5.265625 -6.519531 5.574219 -6.875 C 5.914062 -7.269531 6.167969 -7.585938 6.324219 -7.820312 C 6.484375 -8.058594 6.5625 -8.269531 6.5625 -8.449219 C 6.5625 -8.515625 6.523438 -8.570312 6.441406 -8.609375 C 6.363281 -8.652344 6.269531 -8.683594 6.164062 -8.710938 C 6.042969 -8.738281 5.933594 -8.753906 5.839844 -8.757812 C 5.746094 -8.765625 5.667969 -8.773438 5.605469 -8.777344 L 5.605469 -9.238281 L 9.070312 -9.238281 L 9.070312 -8.777344 C 9.054688 -8.777344 9.027344 -8.773438 8.984375 -8.769531 C 8.941406 -8.765625 8.890625 -8.761719 8.835938 -8.757812 C 8.773438 -8.753906 8.714844 -8.742188 8.652344 -8.730469 C 8.59375 -8.71875 8.515625 -8.703125 8.417969 -8.683594 C 8.265625 -8.648438 8.109375 -8.59375 7.945312 -8.519531 C 7.785156 -8.441406 7.652344 -8.347656 7.546875 -8.234375 C 7.101562 -7.726562 6.632812 -7.203125 6.148438 -6.660156 C 5.664062 -6.117188 5.183594 -5.621094 4.707031 -5.175781 C 5.367188 -4.429688 5.914062 -3.785156 6.34375 -3.246094 C 6.777344 -2.710938 7.238281 -2.136719 7.722656 -1.523438 C 7.910156 -1.289062 8.09375 -1.101562 8.28125 -0.960938 C 8.464844 -0.820312 8.625 -0.714844 8.761719 -0.644531 C 8.871094 -0.589844 9.011719 -0.542969 9.179688 -0.515625 C 9.351562 -0.484375 9.492188 -0.464844 9.601562 -0.460938 Z "/>
</g>
<g id="glyph-0-1">
<path d="M 3.582031 0 L 0.480469 0 L 0.480469 -0.429688 C 0.582031 -0.4375 0.683594 -0.445312 0.789062 -0.457031 C 0.898438 -0.464844 0.988281 -0.480469 1.066406 -0.507812 C 1.1875 -0.546875 1.277344 -0.613281 1.335938 -0.710938 C 1.394531 -0.808594 1.425781 -0.9375 1.425781 -1.09375 L 1.425781 -5.054688 C 1.425781 -5.191406 1.394531 -5.320312 1.332031 -5.433594 C 1.269531 -5.546875 1.179688 -5.644531 1.066406 -5.722656 C 0.984375 -5.773438 0.867188 -5.820312 0.710938 -5.855469 C 0.554688 -5.894531 0.410156 -5.914062 0.28125 -5.925781 L 0.28125 -6.355469 L 2.546875 -6.496094 L 2.636719 -6.40625 L 2.636719 -1.171875 C 2.636719 -1.019531 2.664062 -0.894531 2.722656 -0.792969 C 2.78125 -0.695312 2.875 -0.621094 3 -0.574219 C 3.09375 -0.535156 3.1875 -0.503906 3.277344 -0.476562 C 3.367188 -0.453125 3.46875 -0.4375 3.582031 -0.429688 L 3.582031 0 M 2.765625 -9.03125 C 2.765625 -8.78125 2.683594 -8.566406 2.523438 -8.382812 C 2.359375 -8.199219 2.160156 -8.105469 1.921875 -8.105469 C 1.699219 -8.105469 1.507812 -8.195312 1.34375 -8.367188 C 1.179688 -8.546875 1.101562 -8.746094 1.101562 -8.972656 C 1.101562 -9.210938 1.179688 -9.417969 1.34375 -9.597656 C 1.507812 -9.773438 1.699219 -9.863281 1.921875 -9.863281 C 2.167969 -9.863281 2.371094 -9.78125 2.527344 -9.613281 C 2.6875 -9.445312 2.765625 -9.25 2.765625 -9.03125 Z "/>
</g>
<g id="glyph-0-2">
<path d="M 7.5 -0.117188 L 5.253906 0.0273438 L 5.15625 -0.0664062 L 5.15625 -0.664062 L 5.105469 -0.675781 C 4.878906 -0.425781 4.601562 -0.21875 4.269531 -0.0585938 C 3.9375 0.101562 3.597656 0.183594 3.246094 0.183594 C 2.878906 0.183594 2.527344 0.101562 2.1875 -0.0625 C 1.847656 -0.222656 1.550781 -0.453125 1.300781 -0.75 C 1.046875 -1.046875 0.84375 -1.410156 0.691406 -1.828125 C 0.542969 -2.25 0.46875 -2.714844 0.46875 -3.222656 C 0.46875 -3.6875 0.550781 -4.128906 0.710938 -4.542969 C 0.871094 -4.960938 1.089844 -5.324219 1.371094 -5.636719 C 1.636719 -5.929688 1.960938 -6.160156 2.34375 -6.335938 C 2.726562 -6.507812 3.117188 -6.59375 3.519531 -6.59375 C 3.816406 -6.59375 4.109375 -6.558594 4.398438 -6.480469 C 4.6875 -6.40625 4.933594 -6.308594 5.144531 -6.191406 L 5.144531 -8.429688 C 5.144531 -8.613281 5.113281 -8.777344 5.050781 -8.929688 C 4.992188 -9.078125 4.90625 -9.191406 4.796875 -9.269531 C 4.675781 -9.351562 4.511719 -9.414062 4.304688 -9.449219 C 4.101562 -9.488281 3.878906 -9.515625 3.640625 -9.53125 L 3.640625 -9.933594 L 6.269531 -10.078125 L 6.367188 -9.980469 L 6.367188 -1.328125 C 6.367188 -1.175781 6.394531 -1.046875 6.453125 -0.941406 C 6.511719 -0.835938 6.597656 -0.746094 6.710938 -0.671875 C 6.792969 -0.617188 6.914062 -0.585938 7.070312 -0.574219 C 7.226562 -0.558594 7.371094 -0.550781 7.5 -0.546875 L 7.5 -0.117188 M 5.144531 -1.242188 L 5.144531 -5 C 5.109375 -5.113281 5.050781 -5.234375 4.972656 -5.363281 C 4.894531 -5.496094 4.800781 -5.613281 4.683594 -5.722656 C 4.554688 -5.832031 4.410156 -5.921875 4.238281 -5.992188 C 4.070312 -6.0625 3.875 -6.101562 3.648438 -6.101562 C 3.390625 -6.101562 3.148438 -6.03125 2.929688 -5.898438 C 2.710938 -5.765625 2.519531 -5.570312 2.347656 -5.320312 C 2.1875 -5.074219 2.0625 -4.765625 1.96875 -4.390625 C 1.875 -4.015625 1.828125 -3.601562 1.828125 -3.144531 C 1.828125 -2.78125 1.863281 -2.449219 1.933594 -2.152344 C 2.003906 -1.855469 2.121094 -1.578125 2.285156 -1.320312 C 2.4375 -1.078125 2.628906 -0.882812 2.867188 -0.734375 C 3.101562 -0.589844 3.382812 -0.515625 3.707031 -0.515625 C 4.054688 -0.515625 4.339844 -0.589844 4.566406 -0.742188 C 4.796875 -0.894531 4.988281 -1.0625 5.144531 -1.242188 Z "/>
</g>
<g id="glyph-0-3">
<path d="M 4.707031 -3.144531 C 4.886719 -2.988281 5.023438 -2.808594 5.117188 -2.605469 C 5.210938 -2.398438 5.261719 -2.152344 5.261719 -1.855469 C 5.261719 -1.261719 5.039062 -0.773438 4.59375 -0.398438 C 4.148438 -0.0195312 3.570312 0.167969 2.863281 0.167969 C 2.492188 0.167969 2.148438 0.101562 1.832031 -0.03125 C 1.519531 -0.167969 1.292969 -0.289062 1.160156 -0.402344 L 1.027344 0.0195312 L 0.539062 0.0195312 L 0.476562 -2.214844 L 0.925781 -2.214844 C 0.960938 -2.042969 1.03125 -1.84375 1.144531 -1.617188 C 1.257812 -1.390625 1.394531 -1.1875 1.554688 -1.003906 C 1.726562 -0.8125 1.929688 -0.652344 2.164062 -0.523438 C 2.402344 -0.390625 2.667969 -0.324219 2.960938 -0.324219 C 3.378906 -0.324219 3.699219 -0.421875 3.925781 -0.609375 C 4.152344 -0.800781 4.265625 -1.070312 4.265625 -1.425781 C 4.265625 -1.609375 4.226562 -1.765625 4.15625 -1.898438 C 4.085938 -2.03125 3.980469 -2.144531 3.839844 -2.246094 C 3.699219 -2.347656 3.523438 -2.4375 3.3125 -2.515625 C 3.105469 -2.597656 2.875 -2.675781 2.617188 -2.753906 C 2.414062 -2.816406 2.1875 -2.898438 1.9375 -3.003906 C 1.6875 -3.109375 1.472656 -3.234375 1.296875 -3.378906 C 1.105469 -3.53125 0.949219 -3.71875 0.828125 -3.9375 C 0.707031 -4.160156 0.644531 -4.421875 0.644531 -4.71875 C 0.644531 -5.246094 0.839844 -5.691406 1.230469 -6.054688 C 1.621094 -6.417969 2.144531 -6.601562 2.800781 -6.601562 C 3.050781 -6.601562 3.308594 -6.570312 3.570312 -6.503906 C 3.832031 -6.4375 4.046875 -6.359375 4.210938 -6.269531 L 4.363281 -6.609375 L 4.832031 -6.609375 L 4.929688 -4.542969 L 4.480469 -4.542969 C 4.386719 -5.007812 4.191406 -5.382812 3.890625 -5.671875 C 3.589844 -5.960938 3.21875 -6.105469 2.785156 -6.105469 C 2.429688 -6.105469 2.152344 -6.015625 1.945312 -5.839844 C 1.742188 -5.660156 1.640625 -5.441406 1.640625 -5.1875 C 1.640625 -4.992188 1.675781 -4.832031 1.742188 -4.699219 C 1.808594 -4.570312 1.910156 -4.460938 2.042969 -4.367188 C 2.175781 -4.28125 2.339844 -4.199219 2.535156 -4.125 C 2.734375 -4.046875 2.976562 -3.960938 3.269531 -3.867188 C 3.554688 -3.777344 3.824219 -3.667969 4.078125 -3.546875 C 4.332031 -3.425781 4.542969 -3.292969 4.707031 -3.144531 Z "/>
</g>
</g>
</defs>
<g fill="rgb(22.745098%, 22.745098%, 26.666667%)" fill-opacity="1">
<use xlink:href="#glyph-0-0" x="30" y="32.226562"/>
<use xlink:href="#glyph-0-1" x="39" y="32.226562"/>
<use xlink:href="#glyph-0-2" x="43" y="32.226562"/>
<use xlink:href="#glyph-0-3" x="51" y="32.226562"/>
</g>
</svg>
