<?xml version="1.0" encoding="UTF-8"?>
<svg xmlns="http://www.w3.org/2000/svg" xmlns:xlink="http://www.w3.org/1999/xlink" width="1920" height="1080" viewBox="0 0 1920 1080">
<defs>
<g>
<g id="glyph-0-0">
<path d="M 4.675781 0 L 0.515625 0 L 0.515625 -0.460938 C 0.632812 -0.472656 0.800781 -0.484375 1.023438 -0.5 C 1.242188 -0.519531 1.398438 -0.542969 1.492188 -0.578125 C 1.632812 -0.636719 1.738281 -0.710938 1.804688 -0.808594 C 1.867188 -0.90625 1.902344 -1.042969 1.902344 -1.21875 L 1.902344 -7.910156 C 1.902344 -8.0625 1.878906 -8.1875 1.828125 -8.289062 C 1.78125 -8.394531 1.667969 -8.480469 1.492188 -8.546875 C 1.359375 -8.601562 1.195312 -8.648438 1 -8.695312 C 0.800781 -8.742188 0.640625 -8.765625 0.515625 -8.777344 L 0.515625 -9.238281 L 4.675781 -9.238281 L 4.675781 -8.777344 C 4.539062 -8.773438 4.378906 -8.753906 4.191406 -8.726562 C 4.007812 -8.699219 3.84375 -8.664062 3.703125 -8.621094 C 3.539062 -8.566406 3.429688 -8.484375 3.371094 -8.367188 C 3.316406 -8.25 3.289062 -8.117188 3.289062 -7.976562 L 3.289062 -1.289062 C 3.289062 -1.144531 3.320312 -1.019531 3.382812 -0.90625 C 3.445312 -0.796875 3.550781 -0.710938 3.703125 -0.644531 C 3.796875 -0.609375 3.945312 -0.570312 4.148438 -0.53125 C 4.355469 -0.488281 4.53125 -0.464844 4.675781 -0.460938 Z "/>
</g>
<g id="glyph-0-1">
<path d="M 2.167969 -9.230469 C 2.167969 -9.058594 2.113281 -8.722656 2 -8.230469 C 1.886719 -7.734375 1.761719 -7.09375 1.621094 -6.300781 L 1.222656 -6.300781 C 1.105469 -7.039062 0.992188 -7.671875 0.875 -8.195312 C 0.761719 -8.714844 0.703125 -9.0625 0.703125 -9.230469 C 0.703125 -9.429688 0.765625 -9.601562 0.886719 -9.746094 C 1.007812 -9.890625 1.191406 -9.960938 1.4375 -9.960938 C 1.671875 -9.960938 1.851562 -9.890625 1.980469 -9.746094 C 2.105469 -9.601562 2.167969 -9.429688 2.167969 -9.230469 Z "/>
</g>
<g id="glyph-0-2">
<path d="M 3.476562 0 L 0.34375 0 L 0.34375 -0.429688 C 0.445312 -0.4375 0.550781 -0.449219 0.664062 -0.457031 C 0.777344 -0.46875 0.871094 -0.484375 0.945312 -0.507812 C 1.066406 -0.546875 1.15625 -0.617188 1.21875 -0.714844 C 1.277344 -0.8125 1.308594 -0.9375 1.308594 -1.09375 L 1.308594 -8.535156 C 1.308594 -8.691406 1.273438 -8.835938 1.207031 -8.972656 C 1.140625 -9.109375 1.050781 -9.21875 0.945312 -9.296875 C 0.867188 -9.347656 0.722656 -9.398438 0.515625 -9.441406 C 0.304688 -9.484375 0.140625 -9.507812 0.0117188 -9.519531 L 0.0117188 -9.933594 L 2.429688 -10.078125 L 2.519531 -9.980469 L 2.519531 -1.171875 C 2.519531 -1.019531 2.546875 -0.894531 2.605469 -0.796875 C 2.660156 -0.699219 2.75 -0.625 2.878906 -0.574219 C 2.972656 -0.53125 3.066406 -0.496094 3.160156 -0.476562 C 3.253906 -0.453125 3.359375 -0.4375 3.476562 -0.429688 Z "/>
</g>
</g>
</defs>
<g fill="rgb(100%, 100%, 100%)" fill-opacity="1">
<use xlink:href="#glyph-0-0" x="30" y="32.226562"/>
<use xlink:href="#glyph-0-1" x="35" y="32.226562"/>
<use xlink:href="#glyph-0-2" x="38" y="32.226562"/>
<use xlink:href="#glyph-0-2" x="42" y="32.226562"/>
</g>
</svg>
