<?xml version="1.0" encoding="UTF-8"?>
<svg xmlns="http://www.w3.org/2000/svg" xmlns:xlink="http://www.w3.org/1999/xlink" width="1920" height="1080" viewBox="0 0 1920 1080">
<defs>
<g>
<g id="glyph-0-0">
<path d="M 7.351562 -0.117188 L 5.253906 0.0273438 L 5.15625 -0.0664062 L 5.15625 -0.878906 L 5.117188 -0.878906 C 5.011719 -0.769531 4.894531 -0.652344 4.765625 -0.53125 C 4.636719 -0.40625 4.488281 -0.296875 4.316406 -0.195312 C 4.121094 -0.078125 3.933594 0.0117188 3.753906 0.0703125 C 3.570312 0.132812 3.3125 0.164062 2.980469 0.164062 C 2.410156 0.164062 1.980469 -0.0234375 1.683594 -0.394531 C 1.386719 -0.765625 1.238281 -1.300781 1.238281 -2.007812 L 1.238281 -5.078125 C 1.238281 -5.234375 1.207031 -5.367188 1.148438 -5.472656 C 1.089844 -5.578125 1.003906 -5.671875 0.890625 -5.75 C 0.8125 -5.800781 0.710938 -5.839844 0.59375 -5.863281 C 0.476562 -5.886719 0.351562 -5.902344 0.222656 -5.910156 L 0.222656 -6.339844 L 2.363281 -6.496094 L 2.460938 -6.40625 L 2.460938 -1.945312 C 2.460938 -1.480469 2.566406 -1.132812 2.773438 -0.898438 C 2.980469 -0.664062 3.230469 -0.546875 3.523438 -0.546875 C 3.761719 -0.546875 3.972656 -0.582031 4.160156 -0.65625 C 4.347656 -0.730469 4.503906 -0.816406 4.628906 -0.917969 C 4.746094 -1.007812 4.847656 -1.105469 4.9375 -1.207031 C 5.027344 -1.308594 5.09375 -1.402344 5.144531 -1.488281 L 5.144531 -5.125 C 5.144531 -5.269531 5.113281 -5.394531 5.050781 -5.503906 C 4.992188 -5.617188 4.90625 -5.710938 4.796875 -5.789062 C 4.71875 -5.839844 4.605469 -5.871094 4.449219 -5.882812 C 4.296875 -5.894531 4.125 -5.902344 3.933594 -5.910156 L 3.933594 -6.339844 L 6.269531 -6.496094 L 6.367188 -6.40625 L 6.367188 -1.3125 C 6.367188 -1.167969 6.398438 -1.042969 6.457031 -0.9375 C 6.519531 -0.832031 6.605469 -0.742188 6.710938 -0.671875 C 6.789062 -0.621094 6.882812 -0.589844 6.992188 -0.574219 C 7.101562 -0.5625 7.21875 -0.550781 7.351562 -0.546875 Z "/>
</g>
<g id="glyph-0-1">
<path d="M 6.335938 -5.65625 C 6.589844 -5.355469 6.789062 -5 6.929688 -4.601562 C 7.070312 -4.199219 7.140625 -3.738281 7.140625 -3.222656 C 7.140625 -2.714844 7.058594 -2.25 6.886719 -1.832031 C 6.71875 -1.414062 6.496094 -1.058594 6.21875 -0.761719 C 5.925781 -0.460938 5.601562 -0.230469 5.246094 -0.0703125 C 4.890625 0.0898438 4.515625 0.167969 4.113281 0.167969 C 3.726562 0.167969 3.410156 0.125 3.164062 0.0390625 C 2.917969 -0.046875 2.714844 -0.148438 2.558594 -0.265625 L 2.507812 -0.265625 L 2.507812 1.664062 C 2.507812 1.820312 2.535156 1.953125 2.597656 2.054688 C 2.660156 2.160156 2.75 2.238281 2.878906 2.285156 C 2.980469 2.324219 3.128906 2.363281 3.324219 2.398438 C 3.515625 2.4375 3.675781 2.457031 3.800781 2.460938 L 3.800781 2.890625 L 0.214844 2.890625 L 0.214844 2.460938 C 0.347656 2.453125 0.480469 2.441406 0.605469 2.429688 C 0.730469 2.414062 0.84375 2.394531 0.945312 2.363281 C 1.074219 2.320312 1.164062 2.242188 1.21875 2.136719 C 1.269531 2.027344 1.296875 1.898438 1.296875 1.75 L 1.296875 -5.078125 C 1.296875 -5.207031 1.261719 -5.335938 1.199219 -5.457031 C 1.132812 -5.578125 1.046875 -5.675781 0.945312 -5.75 C 0.867188 -5.800781 0.757812 -5.839844 0.617188 -5.867188 C 0.480469 -5.898438 0.34375 -5.914062 0.214844 -5.925781 L 0.214844 -6.355469 L 2.402344 -6.496094 L 2.492188 -6.417969 L 2.492188 -5.695312 L 2.546875 -5.683594 C 2.769531 -5.945312 3.050781 -6.160156 3.386719 -6.335938 C 3.71875 -6.507812 4.050781 -6.59375 4.382812 -6.59375 C 4.78125 -6.59375 5.144531 -6.511719 5.476562 -6.339844 C 5.808594 -6.171875 6.097656 -5.945312 6.335938 -5.65625 M 5.273438 -1.042969 C 5.445312 -1.3125 5.574219 -1.625 5.65625 -1.980469 C 5.738281 -2.335938 5.78125 -2.730469 5.78125 -3.171875 C 5.78125 -3.492188 5.746094 -3.820312 5.675781 -4.152344 C 5.609375 -4.488281 5.5 -4.777344 5.351562 -5.027344 C 5.203125 -5.277344 5.011719 -5.480469 4.773438 -5.636719 C 4.535156 -5.792969 4.246094 -5.871094 3.914062 -5.871094 C 3.589844 -5.871094 3.316406 -5.800781 3.09375 -5.660156 C 2.867188 -5.519531 2.671875 -5.351562 2.507812 -5.15625 L 2.507812 -1.359375 C 2.546875 -1.242188 2.609375 -1.121094 2.699219 -0.996094 C 2.789062 -0.871094 2.886719 -0.761719 2.996094 -0.671875 C 3.128906 -0.5625 3.273438 -0.472656 3.429688 -0.40625 C 3.585938 -0.339844 3.777344 -0.304688 4.003906 -0.304688 C 4.246094 -0.304688 4.480469 -0.371094 4.707031 -0.496094 C 4.933594 -0.625 5.121094 -0.808594 5.273438 -1.042969 Z "/>
</g>
<g id="glyph-0-2">
</g>
<g id="glyph-0-3">
<path d="M 11.453125 0 L 8.328125 0 L 8.328125 -0.429688 C 8.425781 -0.4375 8.527344 -0.445312 8.628906 -0.457031 C 8.730469 -0.464844 8.820312 -0.480469 8.898438 -0.507812 C 9.019531 -0.546875 9.109375 -0.617188 9.171875 -0.710938 C 9.226562 -0.808594 9.257812 -0.9375 9.257812 -1.09375 L 9.257812 -4.40625 C 9.257812 -4.859375 9.15625 -5.207031 8.949219 -5.453125 C 8.742188 -5.699219 8.484375 -5.820312 8.175781 -5.820312 C 7.964844 -5.820312 7.765625 -5.789062 7.578125 -5.722656 C 7.390625 -5.65625 7.21875 -5.566406 7.0625 -5.449219 C 6.9375 -5.355469 6.832031 -5.25 6.746094 -5.140625 C 6.664062 -5.027344 6.597656 -4.9375 6.554688 -4.863281 L 6.554688 -1.160156 C 6.554688 -1.007812 6.582031 -0.882812 6.632812 -0.785156 C 6.6875 -0.6875 6.773438 -0.613281 6.902344 -0.558594 C 7 -0.519531 7.089844 -0.492188 7.171875 -0.472656 C 7.25 -0.453125 7.355469 -0.4375 7.488281 -0.429688 L 7.488281 0 L 4.425781 0 L 4.425781 -0.429688 C 4.527344 -0.4375 4.625 -0.445312 4.71875 -0.457031 C 4.808594 -0.464844 4.894531 -0.480469 4.972656 -0.507812 C 5.09375 -0.546875 5.183594 -0.617188 5.242188 -0.710938 C 5.300781 -0.808594 5.332031 -0.9375 5.332031 -1.09375 L 5.332031 -4.40625 C 5.332031 -4.859375 5.230469 -5.207031 5.023438 -5.453125 C 4.816406 -5.699219 4.558594 -5.820312 4.25 -5.820312 C 4.035156 -5.820312 3.835938 -5.785156 3.648438 -5.71875 C 3.460938 -5.652344 3.289062 -5.558594 3.132812 -5.441406 C 3.007812 -5.347656 2.898438 -5.238281 2.8125 -5.121094 C 2.726562 -5 2.660156 -4.910156 2.617188 -4.851562 L 2.617188 -1.171875 C 2.617188 -1.023438 2.648438 -0.902344 2.707031 -0.800781 C 2.769531 -0.699219 2.859375 -0.625 2.980469 -0.574219 C 3.074219 -0.53125 3.167969 -0.496094 3.261719 -0.476562 C 3.355469 -0.453125 3.464844 -0.4375 3.582031 -0.429688 L 3.582031 0 L 0.460938 0 L 0.460938 -0.429688 C 0.5625 -0.4375 0.664062 -0.445312 0.769531 -0.457031 C 0.878906 -0.464844 0.96875 -0.480469 1.046875 -0.507812 C 1.167969 -0.546875 1.257812 -0.613281 1.316406 -0.710938 C 1.375 -0.808594 1.40625 -0.9375 1.40625 -1.09375 L 1.40625 -5.078125 C 1.40625 -5.21875 1.375 -5.34375 1.3125 -5.453125 C 1.25 -5.5625 1.160156 -5.65625 1.046875 -5.734375 C 0.964844 -5.789062 0.863281 -5.832031 0.742188 -5.863281 C 0.621094 -5.894531 0.496094 -5.914062 0.363281 -5.925781 L 0.363281 -6.355469 L 2.511719 -6.496094 L 2.605469 -6.40625 L 2.605469 -5.488281 L 2.648438 -5.488281 C 2.757812 -5.597656 2.890625 -5.726562 3.046875 -5.871094 C 3.203125 -6.019531 3.347656 -6.140625 3.484375 -6.230469 C 3.636719 -6.335938 3.824219 -6.421875 4.054688 -6.492188 C 4.28125 -6.558594 4.527344 -6.59375 4.792969 -6.59375 C 5.207031 -6.59375 5.566406 -6.484375 5.867188 -6.257812 C 6.164062 -6.035156 6.378906 -5.765625 6.511719 -5.449219 C 6.667969 -5.601562 6.804688 -5.734375 6.921875 -5.847656 C 7.042969 -5.964844 7.199219 -6.085938 7.394531 -6.21875 C 7.558594 -6.332031 7.753906 -6.421875 7.976562 -6.492188 C 8.199219 -6.558594 8.449219 -6.59375 8.71875 -6.59375 C 9.261719 -6.59375 9.691406 -6.417969 10.007812 -6.0625 C 10.324219 -5.707031 10.480469 -5.160156 10.480469 -4.421875 L 10.480469 -1.160156 C 10.480469 -1.007812 10.507812 -0.882812 10.558594 -0.785156 C 10.613281 -0.6875 10.699219 -0.613281 10.828125 -0.558594 C 10.925781 -0.519531 11.023438 -0.492188 11.121094 -0.472656 C 11.21875 -0.453125 11.332031 -0.4375 11.453125 -0.429688 Z "/>
</g>
<g id="glyph-0-4">
<path d="M -0.0195312 2.097656 C -0.0195312 1.878906 0.0390625 1.703125 0.160156 1.566406 C 0.277344 1.429688 0.425781 1.359375 0.605469 1.359375 C 0.746094 1.359375 0.863281 1.386719 0.964844 1.4375 C 1.0625 1.488281 1.152344 1.554688 1.230469 1.636719 C 1.296875 1.703125 1.363281 1.792969 1.4375 1.902344 C 1.511719 2.015625 1.570312 2.109375 1.613281 2.179688 C 1.832031 2.0625 2.089844 1.757812 2.390625 1.265625 C 2.695312 0.769531 2.910156 0.339844 3.046875 -0.0351562 C 2.632812 -1.0625 2.261719 -1.980469 1.925781 -2.792969 C 1.59375 -3.605469 1.242188 -4.445312 0.878906 -5.3125 C 0.796875 -5.511719 0.65625 -5.667969 0.460938 -5.777344 C 0.265625 -5.886719 0.0703125 -5.960938 -0.125 -5.988281 L -0.125 -6.417969 L 2.808594 -6.417969 L 2.808594 -5.964844 C 2.675781 -5.960938 2.519531 -5.933594 2.339844 -5.882812 C 2.15625 -5.832031 2.066406 -5.773438 2.066406 -5.710938 C 2.066406 -5.683594 2.074219 -5.640625 2.09375 -5.578125 C 2.113281 -5.519531 2.136719 -5.457031 2.164062 -5.390625 C 2.328125 -4.960938 2.578125 -4.34375 2.914062 -3.535156 C 3.253906 -2.726562 3.515625 -2.078125 3.703125 -1.59375 C 3.898438 -2.054688 4.101562 -2.535156 4.3125 -3.03125 C 4.523438 -3.53125 4.757812 -4.117188 5.019531 -4.792969 C 5.046875 -4.875 5.09375 -4.988281 5.148438 -5.132812 C 5.203125 -5.28125 5.234375 -5.402344 5.234375 -5.507812 C 5.234375 -5.621094 5.132812 -5.726562 4.9375 -5.824219 C 4.738281 -5.921875 4.550781 -5.980469 4.375 -6.003906 L 4.375 -6.417969 L 6.757812 -6.417969 L 6.757812 -6.015625 C 6.628906 -5.992188 6.457031 -5.917969 6.242188 -5.789062 C 6.03125 -5.664062 5.871094 -5.480469 5.769531 -5.246094 C 5.25 -4.050781 4.792969 -2.957031 4.390625 -1.972656 C 3.988281 -0.988281 3.683594 -0.261719 3.476562 0.203125 C 3.203125 0.808594 2.957031 1.285156 2.742188 1.625 C 2.527344 1.964844 2.320312 2.234375 2.117188 2.429688 C 1.917969 2.609375 1.734375 2.734375 1.570312 2.796875 C 1.410156 2.859375 1.242188 2.890625 1.066406 2.890625 C 0.730469 2.890625 0.464844 2.808594 0.269531 2.648438 C 0.078125 2.488281 -0.0195312 2.304688 -0.0195312 2.097656 Z "/>
</g>
</g>
</defs>
<g fill="rgb(100%, 100%, 100%)" fill-opacity="1">
<use xlink:href="#glyph-0-0" x="30" y="32.226562"/>
<use xlink:href="#glyph-0-1" x="38" y="32.226562"/>
<use xlink:href="#glyph-0-2" x="46" y="32.226562"/>
<use xlink:href="#glyph-0-3" x="49" y="32.226562"/>
<use xlink:href="#glyph-0-4" x="61" y="32.226562"/>
</g>
</svg>
