<?xml version="1.0" encoding="UTF-8"?>
<svg xmlns="http://www.w3.org/2000/svg" xmlns:xlink="http://www.w3.org/1999/xlink" width="1920" height="1080" viewBox="0 0 1920 1080">
<defs>
<g>
<g id="glyph-0-0">
<path d="M 11.453125 0 L 8.328125 0 L 8.328125 -0.429688 C 8.425781 -0.4375 8.527344 -0.445312 8.628906 -0.457031 C 8.730469 -0.464844 8.820312 -0.480469 8.898438 -0.507812 C 9.019531 -0.546875 9.109375 -0.617188 9.171875 -0.710938 C 9.226562 -0.808594 9.257812 -0.9375 9.257812 -1.09375 L 9.257812 -4.40625 C 9.257812 -4.859375 9.15625 -5.207031 8.949219 -5.453125 C 8.742188 -5.699219 8.484375 -5.820312 8.175781 -5.820312 C 7.964844 -5.820312 7.765625 -5.789062 7.578125 -5.722656 C 7.390625 -5.65625 7.21875 -5.566406 7.0625 -5.449219 C 6.9375 -5.355469 6.832031 -5.25 6.746094 -5.140625 C 6.664062 -5.027344 6.597656 -4.9375 6.554688 -4.863281 L 6.554688 -1.160156 C 6.554688 -1.007812 6.582031 -0.882812 6.632812 -0.785156 C 6.6875 -0.6875 6.773438 -0.613281 6.902344 -0.558594 C 7 -0.519531 7.089844 -0.492188 7.171875 -0.472656 C 7.25 -0.453125 7.355469 -0.4375 7.488281 -0.429688 L 7.488281 0 L 4.425781 0 L 4.425781 -0.429688 C 4.527344 -0.4375 4.625 -0.445312 4.71875 -0.457031 C 4.808594 -0.464844 4.894531 -0.480469 4.972656 -0.507812 C 5.09375 -0.546875 5.183594 -0.617188 5.242188 -0.710938 C 5.300781 -0.808594 5.332031 -0.9375 5.332031 -1.09375 L 5.332031 -4.40625 C 5.332031 -4.859375 5.230469 -5.207031 5.023438 -5.453125 C 4.816406 -5.699219 4.558594 -5.820312 4.25 -5.820312 C 4.035156 -5.820312 3.835938 -5.785156 3.648438 -5.71875 C 3.460938 -5.652344 3.289062 -5.558594 3.132812 -5.441406 C 3.007812 -5.347656 2.898438 -5.238281 2.8125 -5.121094 C 2.726562 -5 2.660156 -4.910156 2.617188 -4.851562 L 2.617188 -1.171875 C 2.617188 -1.023438 2.648438 -0.902344 2.707031 -0.800781 C 2.769531 -0.699219 2.859375 -0.625 2.980469 -0.574219 C 3.074219 -0.53125 3.167969 -0.496094 3.261719 -0.476562 C 3.355469 -0.453125 3.464844 -0.4375 3.582031 -0.429688 L 3.582031 0 L 0.460938 0 L 0.460938 -0.429688 C 0.5625 -0.4375 0.664062 -0.445312 0.769531 -0.457031 C 0.878906 -0.464844 0.96875 -0.480469 1.046875 -0.507812 C 1.167969 -0.546875 1.257812 -0.613281 1.316406 -0.710938 C 1.375 -0.808594 1.40625 -0.9375 1.40625 -1.09375 L 1.40625 -5.078125 C 1.40625 -5.21875 1.375 -5.34375 1.3125 -5.453125 C 1.25 -5.5625 1.160156 -5.65625 1.046875 -5.734375 C 0.964844 -5.789062 0.863281 -5.832031 0.742188 -5.863281 C 0.621094 -5.894531 0.496094 -5.914062 0.363281 -5.925781 L 0.363281 -6.355469 L 2.511719 -6.496094 L 2.605469 -6.40625 L 2.605469 -5.488281 L 2.648438 -5.488281 C 2.757812 -5.597656 2.890625 -5.726562 3.046875 -5.871094 C 3.203125 -6.019531 3.347656 -6.140625 3.484375 -6.230469 C 3.636719 -6.335938 3.824219 -6.421875 4.054688 -6.492188 C 4.28125 -6.558594 4.527344 -6.59375 4.792969 -6.59375 C 5.207031 -6.59375 5.566406 -6.484375 5.867188 -6.257812 C 6.164062 -6.035156 6.378906 -5.765625 6.511719 -5.449219 C 6.667969 -5.601562 6.804688 -5.734375 6.921875 -5.847656 C 7.042969 -5.964844 7.199219 -6.085938 7.394531 -6.21875 C 7.558594 -6.332031 7.753906 -6.421875 7.976562 -6.492188 C 8.199219 -6.558594 8.449219 -6.59375 8.71875 -6.59375 C 9.261719 -6.59375 9.691406 -6.417969 10.007812 -6.0625 C 10.324219 -5.707031 10.480469 -5.160156 10.480469 -4.421875 L 10.480469 -1.160156 C 10.480469 -1.007812 10.507812 -0.882812 10.558594 -0.785156 C 10.613281 -0.6875 10.699219 -0.613281 10.828125 -0.558594 C 10.925781 -0.519531 11.023438 -0.492188 11.121094 -0.472656 C 11.21875 -0.453125 11.332031 -0.4375 11.453125 -0.429688 Z "/>
</g>
<g id="glyph-0-1">
<path d="M 6.171875 -1.511719 C 5.902344 -1 5.542969 -0.589844 5.089844 -0.285156 C 4.640625 0.015625 4.121094 0.167969 3.535156 0.167969 C 3.019531 0.167969 2.566406 0.078125 2.179688 -0.105469 C 1.789062 -0.285156 1.46875 -0.535156 1.21875 -0.847656 C 0.964844 -1.160156 0.777344 -1.523438 0.652344 -1.941406 C 0.53125 -2.355469 0.46875 -2.796875 0.46875 -3.261719 C 0.46875 -3.679688 0.535156 -4.085938 0.667969 -4.488281 C 0.800781 -4.890625 0.992188 -5.25 1.25 -5.574219 C 1.496094 -5.882812 1.804688 -6.128906 2.171875 -6.316406 C 2.539062 -6.507812 2.949219 -6.601562 3.40625 -6.601562 C 3.875 -6.601562 4.273438 -6.527344 4.609375 -6.378906 C 4.945312 -6.234375 5.214844 -6.03125 5.421875 -5.773438 C 5.621094 -5.53125 5.769531 -5.246094 5.867188 -4.914062 C 5.964844 -4.585938 6.015625 -4.226562 6.015625 -3.839844 L 6.015625 -3.410156 L 1.765625 -3.410156 C 1.765625 -2.988281 1.804688 -2.605469 1.882812 -2.261719 C 1.964844 -1.917969 2.09375 -1.617188 2.265625 -1.355469 C 2.433594 -1.105469 2.65625 -0.90625 2.929688 -0.757812 C 3.203125 -0.613281 3.527344 -0.539062 3.90625 -0.539062 C 4.292969 -0.539062 4.625 -0.632812 4.90625 -0.8125 C 5.183594 -0.992188 5.457031 -1.320312 5.714844 -1.789062 L 6.171875 -1.511719 M 4.734375 -3.957031 C 4.734375 -4.199219 4.710938 -4.460938 4.671875 -4.738281 C 4.628906 -5.015625 4.5625 -5.246094 4.472656 -5.433594 C 4.371094 -5.628906 4.234375 -5.792969 4.0625 -5.917969 C 3.890625 -6.042969 3.664062 -6.105469 3.390625 -6.105469 C 2.9375 -6.105469 2.558594 -5.917969 2.257812 -5.539062 C 1.953125 -5.160156 1.789062 -4.632812 1.765625 -3.957031 Z "/>
</g>
<g id="glyph-0-2">
<path d="M 2.792969 -0.226562 C 2.792969 0.0859375 2.722656 0.378906 2.582031 0.65625 C 2.441406 0.933594 2.277344 1.175781 2.097656 1.375 C 1.910156 1.582031 1.710938 1.765625 1.503906 1.925781 C 1.296875 2.085938 1.105469 2.214844 0.929688 2.304688 L 0.632812 1.867188 C 0.839844 1.738281 1.027344 1.609375 1.191406 1.476562 C 1.355469 1.347656 1.492188 1.21875 1.59375 1.085938 C 1.726562 0.933594 1.835938 0.769531 1.925781 0.59375 C 2.019531 0.414062 2.078125 0.210938 2.101562 -0.0117188 L 1.769531 -0.0117188 C 1.480469 -0.0117188 1.253906 -0.0898438 1.089844 -0.242188 C 0.925781 -0.394531 0.847656 -0.597656 0.847656 -0.851562 C 0.847656 -1.035156 0.921875 -1.210938 1.066406 -1.382812 C 1.214844 -1.554688 1.417969 -1.640625 1.671875 -1.640625 C 2.046875 -1.640625 2.328125 -1.515625 2.511719 -1.265625 C 2.699219 -1.015625 2.792969 -0.671875 2.792969 -0.226562 Z "/>
</g>
<g id="glyph-0-3">
</g>
<g id="glyph-0-4">
<path d="M 4.675781 0 L 0.515625 0 L 0.515625 -0.460938 C 0.632812 -0.472656 0.800781 -0.484375 1.023438 -0.5 C 1.242188 -0.519531 1.398438 -0.542969 1.492188 -0.578125 C 1.632812 -0.636719 1.738281 -0.710938 1.804688 -0.808594 C 1.867188 -0.90625 1.902344 -1.042969 1.902344 -1.21875 L 1.902344 -7.910156 C 1.902344 -8.0625 1.878906 -8.1875 1.828125 -8.289062 C 1.78125 -8.394531 1.667969 -8.480469 1.492188 -8.546875 C 1.359375 -8.601562 1.195312 -8.648438 1 -8.695312 C 0.800781 -8.742188 0.640625 -8.765625 0.515625 -8.777344 L 0.515625 -9.238281 L 4.675781 -9.238281 L 4.675781 -8.777344 C 4.539062 -8.773438 4.378906 -8.753906 4.191406 -8.726562 C 4.007812 -8.699219 3.84375 -8.664062 3.703125 -8.621094 C 3.539062 -8.566406 3.429688 -8.484375 3.371094 -8.367188 C 3.316406 -8.25 3.289062 -8.117188 3.289062 -7.976562 L 3.289062 -1.289062 C 3.289062 -1.144531 3.320312 -1.019531 3.382812 -0.90625 C 3.445312 -0.796875 3.550781 -0.710938 3.703125 -0.644531 C 3.796875 -0.609375 3.945312 -0.570312 4.148438 -0.53125 C 4.355469 -0.488281 4.53125 -0.464844 4.675781 -0.460938 Z "/>
</g>
</g>
</defs>
<g fill="rgb(100%, 100%, 100%)" fill-opacity="1">
<use xlink:href="#glyph-0-0" x="30" y="32.226562"/>
<use xlink:href="#glyph-0-1" x="42" y="32.226562"/>
<use xlink:href="#glyph-0-2" x="48" y="32.226562"/>
<use xlink:href="#glyph-0-3" x="52" y="32.226562"/>
<use xlink:href="#glyph-0-4" x="55" y="32.226562"/>
</g>
</svg>
