<?xml version="1.0" encoding="UTF-8"?>
<svg xmlns="http://www.w3.org/2000/svg" xmlns:xlink="http://www.w3.org/1999/xlink" width="1920" height="1080" viewBox="0 0 1920 1080">
<defs>
<g>
<g id="glyph-0-0">
<path d="M 10.203125 0 L 6.367188 0 L 6.367188 -0.460938 C 6.472656 -0.472656 6.621094 -0.484375 6.820312 -0.5 C 7.015625 -0.519531 7.152344 -0.542969 7.226562 -0.578125 C 7.355469 -0.632812 7.453125 -0.710938 7.511719 -0.816406 C 7.574219 -0.921875 7.605469 -1.0625 7.605469 -1.230469 L 7.605469 -4.519531 L 3.261719 -4.519531 L 3.261719 -1.300781 C 3.261719 -1.148438 3.285156 -1.023438 3.335938 -0.917969 C 3.386719 -0.8125 3.484375 -0.722656 3.632812 -0.644531 C 3.707031 -0.605469 3.835938 -0.566406 4.027344 -0.527344 C 4.214844 -0.488281 4.363281 -0.464844 4.472656 -0.460938 L 4.472656 0 L 0.636719 0 L 0.636719 -0.460938 C 0.742188 -0.472656 0.894531 -0.484375 1.089844 -0.5 C 1.289062 -0.519531 1.421875 -0.542969 1.496094 -0.578125 C 1.628906 -0.632812 1.722656 -0.710938 1.785156 -0.816406 C 1.84375 -0.921875 1.875 -1.0625 1.875 -1.230469 L 1.875 -7.898438 C 1.875 -8.035156 1.847656 -8.164062 1.789062 -8.277344 C 1.734375 -8.394531 1.636719 -8.484375 1.496094 -8.546875 C 1.378906 -8.605469 1.238281 -8.65625 1.070312 -8.699219 C 0.902344 -8.742188 0.757812 -8.765625 0.636719 -8.777344 L 0.636719 -9.238281 L 4.472656 -9.238281 L 4.472656 -8.777344 C 4.351562 -8.773438 4.203125 -8.753906 4.027344 -8.71875 C 3.851562 -8.683594 3.71875 -8.648438 3.632812 -8.621094 C 3.484375 -8.566406 3.386719 -8.480469 3.335938 -8.359375 C 3.285156 -8.238281 3.261719 -8.105469 3.261719 -7.960938 L 3.261719 -5.097656 L 7.605469 -5.097656 L 7.605469 -7.898438 C 7.605469 -8.035156 7.574219 -8.164062 7.519531 -8.277344 C 7.464844 -8.394531 7.367188 -8.484375 7.226562 -8.546875 C 7.109375 -8.605469 6.96875 -8.65625 6.800781 -8.699219 C 6.632812 -8.742188 6.488281 -8.765625 6.367188 -8.777344 L 6.367188 -9.238281 L 10.203125 -9.238281 L 10.203125 -8.777344 C 10.082031 -8.773438 9.929688 -8.753906 9.757812 -8.71875 C 9.578125 -8.683594 9.449219 -8.648438 9.363281 -8.621094 C 9.214844 -8.566406 9.117188 -8.480469 9.066406 -8.359375 C 9.015625 -8.238281 8.992188 -8.105469 8.992188 -7.960938 L 8.992188 -1.300781 C 8.992188 -1.148438 9.015625 -1.023438 9.066406 -0.917969 C 9.117188 -0.8125 9.214844 -0.722656 9.363281 -0.644531 C 9.4375 -0.605469 9.566406 -0.566406 9.757812 -0.527344 C 9.945312 -0.488281 10.09375 -0.464844 10.203125 -0.460938 Z "/>
</g>
<g id="glyph-0-1">
<path d="M 6.171875 -1.511719 C 5.902344 -1 5.542969 -0.589844 5.089844 -0.285156 C 4.640625 0.015625 4.121094 0.167969 3.535156 0.167969 C 3.019531 0.167969 2.566406 0.078125 2.179688 -0.105469 C 1.789062 -0.285156 1.46875 -0.535156 1.21875 -0.847656 C 0.964844 -1.160156 0.777344 -1.523438 0.652344 -1.941406 C 0.53125 -2.355469 0.46875 -2.796875 0.46875 -3.261719 C 0.46875 -3.679688 0.535156 -4.085938 0.667969 -4.488281 C 0.800781 -4.890625 0.992188 -5.25 1.25 -5.574219 C 1.496094 -5.882812 1.804688 -6.128906 2.171875 -6.316406 C 2.539062 -6.507812 2.949219 -6.601562 3.40625 -6.601562 C 3.875 -6.601562 4.273438 -6.527344 4.609375 -6.378906 C 4.945312 -6.234375 5.214844 -6.03125 5.421875 -5.773438 C 5.621094 -5.53125 5.769531 -5.246094 5.867188 -4.914062 C 5.964844 -4.585938 6.015625 -4.226562 6.015625 -3.839844 L 6.015625 -3.410156 L 1.765625 -3.410156 C 1.765625 -2.988281 1.804688 -2.605469 1.882812 -2.261719 C 1.964844 -1.917969 2.09375 -1.617188 2.265625 -1.355469 C 2.433594 -1.105469 2.65625 -0.90625 2.929688 -0.757812 C 3.203125 -0.613281 3.527344 -0.539062 3.90625 -0.539062 C 4.292969 -0.539062 4.625 -0.632812 4.90625 -0.8125 C 5.183594 -0.992188 5.457031 -1.320312 5.714844 -1.789062 L 6.171875 -1.511719 M 4.734375 -3.957031 C 4.734375 -4.199219 4.710938 -4.460938 4.671875 -4.738281 C 4.628906 -5.015625 4.5625 -5.246094 4.472656 -5.433594 C 4.371094 -5.628906 4.234375 -5.792969 4.0625 -5.917969 C 3.890625 -6.042969 3.664062 -6.105469 3.390625 -6.105469 C 2.9375 -6.105469 2.558594 -5.917969 2.257812 -5.539062 C 1.953125 -5.160156 1.789062 -4.632812 1.765625 -3.957031 Z "/>
</g>
<g id="glyph-0-2">
<path d="M -0.0195312 2.097656 C -0.0195312 1.878906 0.0390625 1.703125 0.160156 1.566406 C 0.277344 1.429688 0.425781 1.359375 0.605469 1.359375 C 0.746094 1.359375 0.863281 1.386719 0.964844 1.4375 C 1.0625 1.488281 1.152344 1.554688 1.230469 1.636719 C 1.296875 1.703125 1.363281 1.792969 1.4375 1.902344 C 1.511719 2.015625 1.570312 2.109375 1.613281 2.179688 C 1.832031 2.0625 2.089844 1.757812 2.390625 1.265625 C 2.695312 0.769531 2.910156 0.339844 3.046875 -0.0351562 C 2.632812 -1.0625 2.261719 -1.980469 1.925781 -2.792969 C 1.59375 -3.605469 1.242188 -4.445312 0.878906 -5.3125 C 0.796875 -5.511719 0.65625 -5.667969 0.460938 -5.777344 C 0.265625 -5.886719 0.0703125 -5.960938 -0.125 -5.988281 L -0.125 -6.417969 L 2.808594 -6.417969 L 2.808594 -5.964844 C 2.675781 -5.960938 2.519531 -5.933594 2.339844 -5.882812 C 2.15625 -5.832031 2.066406 -5.773438 2.066406 -5.710938 C 2.066406 -5.683594 2.074219 -5.640625 2.09375 -5.578125 C 2.113281 -5.519531 2.136719 -5.457031 2.164062 -5.390625 C 2.328125 -4.960938 2.578125 -4.34375 2.914062 -3.535156 C 3.253906 -2.726562 3.515625 -2.078125 3.703125 -1.59375 C 3.898438 -2.054688 4.101562 -2.535156 4.3125 -3.03125 C 4.523438 -3.53125 4.757812 -4.117188 5.019531 -4.792969 C 5.046875 -4.875 5.09375 -4.988281 5.148438 -5.132812 C 5.203125 -5.28125 5.234375 -5.402344 5.234375 -5.507812 C 5.234375 -5.621094 5.132812 -5.726562 4.9375 -5.824219 C 4.738281 -5.921875 4.550781 -5.980469 4.375 -6.003906 L 4.375 -6.417969 L 6.757812 -6.417969 L 6.757812 -6.015625 C 6.628906 -5.992188 6.457031 -5.917969 6.242188 -5.789062 C 6.03125 -5.664062 5.871094 -5.480469 5.769531 -5.246094 C 5.25 -4.050781 4.792969 -2.957031 4.390625 -1.972656 C 3.988281 -0.988281 3.683594 -0.261719 3.476562 0.203125 C 3.203125 0.808594 2.957031 1.285156 2.742188 1.625 C 2.527344 1.964844 2.320312 2.234375 2.117188 2.429688 C 1.917969 2.609375 1.734375 2.734375 1.570312 2.796875 C 1.410156 2.859375 1.242188 2.890625 1.066406 2.890625 C 0.730469 2.890625 0.464844 2.808594 0.269531 2.648438 C 0.078125 2.488281 -0.0195312 2.304688 -0.0195312 2.097656 Z "/>
</g>
<g id="glyph-0-3">
<path d="M 2.792969 -0.226562 C 2.792969 0.0859375 2.722656 0.378906 2.582031 0.65625 C 2.441406 0.933594 2.277344 1.175781 2.097656 1.375 C 1.910156 1.582031 1.710938 1.765625 1.503906 1.925781 C 1.296875 2.085938 1.105469 2.214844 0.929688 2.304688 L 0.632812 1.867188 C 0.839844 1.738281 1.027344 1.609375 1.191406 1.476562 C 1.355469 1.347656 1.492188 1.21875 1.59375 1.085938 C 1.726562 0.933594 1.835938 0.769531 1.925781 0.59375 C 2.019531 0.414062 2.078125 0.210938 2.101562 -0.0117188 L 1.769531 -0.0117188 C 1.480469 -0.0117188 1.253906 -0.0898438 1.089844 -0.242188 C 0.925781 -0.394531 0.847656 -0.597656 0.847656 -0.851562 C 0.847656 -1.035156 0.921875 -1.210938 1.066406 -1.382812 C 1.214844 -1.554688 1.417969 -1.640625 1.671875 -1.640625 C 2.046875 -1.640625 2.328125 -1.515625 2.511719 -1.265625 C 2.699219 -1.015625 2.792969 -0.671875 2.792969 -0.226562 Z "/>
</g>
</g>
</defs>
<g fill="rgb(100%, 100%, 100%)" fill-opacity="1">
<use xlink:href="#glyph-0-0" x="30" y="32.226562"/>
<use xlink:href="#glyph-0-1" x="41" y="32.226562"/>
<use xlink:href="#glyph-0-2" x="47" y="32.226562"/>
<use xlink:href="#glyph-0-3" x="54" y="32.226562"/>
</g>
</svg>
