<?xml version="1.0" encoding="UTF-8"?>
<svg xmlns="http://www.w3.org/2000/svg" xmlns:xlink="http://www.w3.org/1999/xlink" width="1920" height="1080" viewBox="0 0 1920 1080">
<defs>
<g>
<g id="glyph-0-0">
<path d="M 7.5 -0.117188 L 5.253906 0.0273438 L 5.15625 -0.0664062 L 5.15625 -0.664062 L 5.105469 -0.675781 C 4.878906 -0.425781 4.601562 -0.21875 4.269531 -0.0585938 C 3.9375 0.101562 3.597656 0.183594 3.246094 0.183594 C 2.878906 0.183594 2.527344 0.101562 2.1875 -0.0625 C 1.847656 -0.222656 1.550781 -0.453125 1.300781 -0.75 C 1.046875 -1.046875 0.84375 -1.410156 0.691406 -1.828125 C 0.542969 -2.25 0.46875 -2.714844 0.46875 -3.222656 C 0.46875 -3.6875 0.550781 -4.128906 0.710938 -4.542969 C 0.871094 -4.960938 1.089844 -5.324219 1.371094 -5.636719 C 1.636719 -5.929688 1.960938 -6.160156 2.34375 -6.335938 C 2.726562 -6.507812 3.117188 -6.59375 3.519531 -6.59375 C 3.816406 -6.59375 4.109375 -6.558594 4.398438 -6.480469 C 4.6875 -6.40625 4.933594 -6.308594 5.144531 -6.191406 L 5.144531 -8.429688 C 5.144531 -8.613281 5.113281 -8.777344 5.050781 -8.929688 C 4.992188 -9.078125 4.90625 -9.191406 4.796875 -9.269531 C 4.675781 -9.351562 4.511719 -9.414062 4.304688 -9.449219 C 4.101562 -9.488281 3.878906 -9.515625 3.640625 -9.53125 L 3.640625 -9.933594 L 6.269531 -10.078125 L 6.367188 -9.980469 L 6.367188 -1.328125 C 6.367188 -1.175781 6.394531 -1.046875 6.453125 -0.941406 C 6.511719 -0.835938 6.597656 -0.746094 6.710938 -0.671875 C 6.792969 -0.617188 6.914062 -0.585938 7.070312 -0.574219 C 7.226562 -0.558594 7.371094 -0.550781 7.5 -0.546875 L 7.5 -0.117188 M 5.144531 -1.242188 L 5.144531 -5 C 5.109375 -5.113281 5.050781 -5.234375 4.972656 -5.363281 C 4.894531 -5.496094 4.800781 -5.613281 4.683594 -5.722656 C 4.554688 -5.832031 4.410156 -5.921875 4.238281 -5.992188 C 4.070312 -6.0625 3.875 -6.101562 3.648438 -6.101562 C 3.390625 -6.101562 3.148438 -6.03125 2.929688 -5.898438 C 2.710938 -5.765625 2.519531 -5.570312 2.347656 -5.320312 C 2.1875 -5.074219 2.0625 -4.765625 1.96875 -4.390625 C 1.875 -4.015625 1.828125 -3.601562 1.828125 -3.144531 C 1.828125 -2.78125 1.863281 -2.449219 1.933594 -2.152344 C 2.003906 -1.855469 2.121094 -1.578125 2.285156 -1.320312 C 2.4375 -1.078125 2.628906 -0.882812 2.867188 -0.734375 C 3.101562 -0.589844 3.382812 -0.515625 3.707031 -0.515625 C 4.054688 -0.515625 4.339844 -0.589844 4.566406 -0.742188 C 4.796875 -0.894531 4.988281 -1.0625 5.144531 -1.242188 Z "/>
</g>
<g id="glyph-0-1">
<path d="M 7.351562 -0.117188 L 5.253906 0.0273438 L 5.15625 -0.0664062 L 5.15625 -0.878906 L 5.117188 -0.878906 C 5.011719 -0.769531 4.894531 -0.652344 4.765625 -0.53125 C 4.636719 -0.40625 4.488281 -0.296875 4.316406 -0.195312 C 4.121094 -0.078125 3.933594 0.0117188 3.753906 0.0703125 C 3.570312 0.132812 3.3125 0.164062 2.980469 0.164062 C 2.410156 0.164062 1.980469 -0.0234375 1.683594 -0.394531 C 1.386719 -0.765625 1.238281 -1.300781 1.238281 -2.007812 L 1.238281 -5.078125 C 1.238281 -5.234375 1.207031 -5.367188 1.148438 -5.472656 C 1.089844 -5.578125 1.003906 -5.671875 0.890625 -5.75 C 0.8125 -5.800781 0.710938 -5.839844 0.59375 -5.863281 C 0.476562 -5.886719 0.351562 -5.902344 0.222656 -5.910156 L 0.222656 -6.339844 L 2.363281 -6.496094 L 2.460938 -6.40625 L 2.460938 -1.945312 C 2.460938 -1.480469 2.566406 -1.132812 2.773438 -0.898438 C 2.980469 -0.664062 3.230469 -0.546875 3.523438 -0.546875 C 3.761719 -0.546875 3.972656 -0.582031 4.160156 -0.65625 C 4.347656 -0.730469 4.503906 -0.816406 4.628906 -0.917969 C 4.746094 -1.007812 4.847656 -1.105469 4.9375 -1.207031 C 5.027344 -1.308594 5.09375 -1.402344 5.144531 -1.488281 L 5.144531 -5.125 C 5.144531 -5.269531 5.113281 -5.394531 5.050781 -5.503906 C 4.992188 -5.617188 4.90625 -5.710938 4.796875 -5.789062 C 4.71875 -5.839844 4.605469 -5.871094 4.449219 -5.882812 C 4.296875 -5.894531 4.125 -5.902344 3.933594 -5.910156 L 3.933594 -6.339844 L 6.269531 -6.496094 L 6.367188 -6.40625 L 6.367188 -1.3125 C 6.367188 -1.167969 6.398438 -1.042969 6.457031 -0.9375 C 6.519531 -0.832031 6.605469 -0.742188 6.710938 -0.671875 C 6.789062 -0.621094 6.882812 -0.589844 6.992188 -0.574219 C 7.101562 -0.5625 7.21875 -0.550781 7.351562 -0.546875 Z "/>
</g>
<g id="glyph-0-2">
<path d="M 6.171875 -1.511719 C 5.902344 -1 5.542969 -0.589844 5.089844 -0.285156 C 4.640625 0.015625 4.121094 0.167969 3.535156 0.167969 C 3.019531 0.167969 2.566406 0.078125 2.179688 -0.105469 C 1.789062 -0.285156 1.46875 -0.535156 1.21875 -0.847656 C 0.964844 -1.160156 0.777344 -1.523438 0.652344 -1.941406 C 0.53125 -2.355469 0.46875 -2.796875 0.46875 -3.261719 C 0.46875 -3.679688 0.535156 -4.085938 0.667969 -4.488281 C 0.800781 -4.890625 0.992188 -5.25 1.25 -5.574219 C 1.496094 -5.882812 1.804688 -6.128906 2.171875 -6.316406 C 2.539062 -6.507812 2.949219 -6.601562 3.40625 -6.601562 C 3.875 -6.601562 4.273438 -6.527344 4.609375 -6.378906 C 4.945312 -6.234375 5.214844 -6.03125 5.421875 -5.773438 C 5.621094 -5.53125 5.769531 -5.246094 5.867188 -4.914062 C 5.964844 -4.585938 6.015625 -4.226562 6.015625 -3.839844 L 6.015625 -3.410156 L 1.765625 -3.410156 C 1.765625 -2.988281 1.804688 -2.605469 1.882812 -2.261719 C 1.964844 -1.917969 2.09375 -1.617188 2.265625 -1.355469 C 2.433594 -1.105469 2.65625 -0.90625 2.929688 -0.757812 C 3.203125 -0.613281 3.527344 -0.539062 3.90625 -0.539062 C 4.292969 -0.539062 4.625 -0.632812 4.90625 -0.8125 C 5.183594 -0.992188 5.457031 -1.320312 5.714844 -1.789062 L 6.171875 -1.511719 M 4.734375 -3.957031 C 4.734375 -4.199219 4.710938 -4.460938 4.671875 -4.738281 C 4.628906 -5.015625 4.5625 -5.246094 4.472656 -5.433594 C 4.371094 -5.628906 4.234375 -5.792969 4.0625 -5.917969 C 3.890625 -6.042969 3.664062 -6.105469 3.390625 -6.105469 C 2.9375 -6.105469 2.558594 -5.917969 2.257812 -5.539062 C 1.953125 -5.160156 1.789062 -4.632812 1.765625 -3.957031 Z "/>
</g>
</g>
</defs>
<g fill="rgb(22.745098%, 22.745098%, 26.666667%)" fill-opacity="1">
<use xlink:href="#glyph-0-0" x="30" y="32.226562"/>
<use xlink:href="#glyph-0-1" x="38" y="32.226562"/>
<use xlink:href="#glyph-0-2" x="46" y="32.226562"/>
</g>
</svg>
