<?xml version="1.0" encoding="UTF-8"?>
<svg xmlns="http://www.w3.org/2000/svg" xmlns:xlink="http://www.w3.org/1999/xlink" width="1920" height="1080" viewBox="0 0 1920 1080">
<defs>
<g>
<g id="glyph-0-0">
<path d="M 4.433594 -0.28125 C 4.152344 -0.164062 3.882812 -0.0625 3.632812 0.015625 C 3.382812 0.0976562 3.074219 0.136719 2.707031 0.136719 C 2.171875 0.136719 1.792969 0 1.570312 -0.269531 C 1.351562 -0.542969 1.242188 -0.925781 1.242188 -1.417969 L 1.242188 -5.769531 L 0.0859375 -5.769531 L 0.0859375 -6.394531 L 1.269531 -6.394531 L 1.269531 -8.390625 L 2.453125 -8.390625 L 2.453125 -6.394531 L 4.296875 -6.394531 L 4.296875 -5.769531 L 2.46875 -5.769531 L 2.46875 -2.179688 C 2.46875 -1.910156 2.476562 -1.6875 2.496094 -1.507812 C 2.515625 -1.328125 2.5625 -1.167969 2.636719 -1.035156 C 2.707031 -0.910156 2.808594 -0.8125 2.949219 -0.75 C 3.089844 -0.683594 3.273438 -0.652344 3.507812 -0.652344 C 3.617188 -0.652344 3.777344 -0.660156 3.988281 -0.679688 C 4.199219 -0.699219 4.347656 -0.726562 4.433594 -0.753906 Z "/>
</g>
<g id="glyph-0-1">
<path d="M 7.453125 0 L 4.296875 0 L 4.296875 -0.429688 C 4.398438 -0.4375 4.507812 -0.445312 4.628906 -0.457031 C 4.75 -0.464844 4.851562 -0.480469 4.929688 -0.507812 C 5.050781 -0.546875 5.140625 -0.617188 5.199219 -0.710938 C 5.257812 -0.808594 5.285156 -0.9375 5.285156 -1.09375 L 5.285156 -4.394531 C 5.285156 -4.851562 5.179688 -5.203125 4.964844 -5.449219 C 4.75 -5.695312 4.484375 -5.820312 4.175781 -5.820312 C 3.949219 -5.820312 3.742188 -5.785156 3.546875 -5.710938 C 3.355469 -5.640625 3.179688 -5.554688 3.027344 -5.449219 C 2.878906 -5.339844 2.765625 -5.230469 2.6875 -5.125 C 2.609375 -5.015625 2.550781 -4.925781 2.507812 -4.851562 L 2.507812 -1.160156 C 2.507812 -1.011719 2.535156 -0.890625 2.59375 -0.792969 C 2.652344 -0.699219 2.742188 -0.625 2.863281 -0.574219 C 2.960938 -0.53125 3.058594 -0.496094 3.160156 -0.476562 C 3.261719 -0.453125 3.375 -0.4375 3.496094 -0.429688 L 3.496094 0 L 0.351562 0 L 0.351562 -0.429688 C 0.449219 -0.4375 0.554688 -0.449219 0.660156 -0.457031 C 0.769531 -0.46875 0.859375 -0.484375 0.933594 -0.507812 C 1.054688 -0.546875 1.144531 -0.617188 1.203125 -0.714844 C 1.265625 -0.8125 1.296875 -0.9375 1.296875 -1.09375 L 1.296875 -8.574219 C 1.296875 -8.722656 1.261719 -8.867188 1.195312 -9.015625 C 1.128906 -9.164062 1.039062 -9.273438 0.929688 -9.347656 C 0.851562 -9.40625 0.714844 -9.445312 0.515625 -9.46875 C 0.320312 -9.492188 0.160156 -9.507812 0.0390625 -9.519531 L 0.0390625 -9.933594 L 2.414062 -10.078125 L 2.507812 -9.980469 L 2.507812 -5.5 L 2.53125 -5.5 C 2.675781 -5.644531 2.804688 -5.769531 2.925781 -5.882812 C 3.042969 -5.992188 3.195312 -6.109375 3.386719 -6.230469 C 3.550781 -6.335938 3.746094 -6.421875 3.96875 -6.492188 C 4.195312 -6.558594 4.445312 -6.59375 4.722656 -6.59375 C 5.296875 -6.59375 5.738281 -6.414062 6.046875 -6.050781 C 6.355469 -5.6875 6.511719 -5.167969 6.511719 -4.484375 L 6.511719 -1.144531 C 6.511719 -0.992188 6.539062 -0.871094 6.59375 -0.777344 C 6.648438 -0.683594 6.738281 -0.613281 6.863281 -0.558594 C 6.964844 -0.519531 7.054688 -0.492188 7.136719 -0.472656 C 7.21875 -0.453125 7.324219 -0.4375 7.453125 -0.429688 Z "/>
</g>
<g id="glyph-0-2">
<path d="M 6.171875 -1.511719 C 5.902344 -1 5.542969 -0.589844 5.089844 -0.285156 C 4.640625 0.015625 4.121094 0.167969 3.535156 0.167969 C 3.019531 0.167969 2.566406 0.078125 2.179688 -0.105469 C 1.789062 -0.285156 1.46875 -0.535156 1.21875 -0.847656 C 0.964844 -1.160156 0.777344 -1.523438 0.652344 -1.941406 C 0.53125 -2.355469 0.46875 -2.796875 0.46875 -3.261719 C 0.46875 -3.679688 0.535156 -4.085938 0.667969 -4.488281 C 0.800781 -4.890625 0.992188 -5.25 1.25 -5.574219 C 1.496094 -5.882812 1.804688 -6.128906 2.171875 -6.316406 C 2.539062 -6.507812 2.949219 -6.601562 3.40625 -6.601562 C 3.875 -6.601562 4.273438 -6.527344 4.609375 -6.378906 C 4.945312 -6.234375 5.214844 -6.03125 5.421875 -5.773438 C 5.621094 -5.53125 5.769531 -5.246094 5.867188 -4.914062 C 5.964844 -4.585938 6.015625 -4.226562 6.015625 -3.839844 L 6.015625 -3.410156 L 1.765625 -3.410156 C 1.765625 -2.988281 1.804688 -2.605469 1.882812 -2.261719 C 1.964844 -1.917969 2.09375 -1.617188 2.265625 -1.355469 C 2.433594 -1.105469 2.65625 -0.90625 2.929688 -0.757812 C 3.203125 -0.613281 3.527344 -0.539062 3.90625 -0.539062 C 4.292969 -0.539062 4.625 -0.632812 4.90625 -0.8125 C 5.183594 -0.992188 5.457031 -1.320312 5.714844 -1.789062 L 6.171875 -1.511719 M 4.734375 -3.957031 C 4.734375 -4.199219 4.710938 -4.460938 4.671875 -4.738281 C 4.628906 -5.015625 4.5625 -5.246094 4.472656 -5.433594 C 4.371094 -5.628906 4.234375 -5.792969 4.0625 -5.917969 C 3.890625 -6.042969 3.664062 -6.105469 3.390625 -6.105469 C 2.9375 -6.105469 2.558594 -5.917969 2.257812 -5.539062 C 1.953125 -5.160156 1.789062 -4.632812 1.765625 -3.957031 Z "/>
</g>
<g id="glyph-0-3">
<path d="M -0.0195312 2.097656 C -0.0195312 1.878906 0.0390625 1.703125 0.160156 1.566406 C 0.277344 1.429688 0.425781 1.359375 0.605469 1.359375 C 0.746094 1.359375 0.863281 1.386719 0.964844 1.4375 C 1.0625 1.488281 1.152344 1.554688 1.230469 1.636719 C 1.296875 1.703125 1.363281 1.792969 1.4375 1.902344 C 1.511719 2.015625 1.570312 2.109375 1.613281 2.179688 C 1.832031 2.0625 2.089844 1.757812 2.390625 1.265625 C 2.695312 0.769531 2.910156 0.339844 3.046875 -0.0351562 C 2.632812 -1.0625 2.261719 -1.980469 1.925781 -2.792969 C 1.59375 -3.605469 1.242188 -4.445312 0.878906 -5.3125 C 0.796875 -5.511719 0.65625 -5.667969 0.460938 -5.777344 C 0.265625 -5.886719 0.0703125 -5.960938 -0.125 -5.988281 L -0.125 -6.417969 L 2.808594 -6.417969 L 2.808594 -5.964844 C 2.675781 -5.960938 2.519531 -5.933594 2.339844 -5.882812 C 2.15625 -5.832031 2.066406 -5.773438 2.066406 -5.710938 C 2.066406 -5.683594 2.074219 -5.640625 2.09375 -5.578125 C 2.113281 -5.519531 2.136719 -5.457031 2.164062 -5.390625 C 2.328125 -4.960938 2.578125 -4.34375 2.914062 -3.535156 C 3.253906 -2.726562 3.515625 -2.078125 3.703125 -1.59375 C 3.898438 -2.054688 4.101562 -2.535156 4.3125 -3.03125 C 4.523438 -3.53125 4.757812 -4.117188 5.019531 -4.792969 C 5.046875 -4.875 5.09375 -4.988281 5.148438 -5.132812 C 5.203125 -5.28125 5.234375 -5.402344 5.234375 -5.507812 C 5.234375 -5.621094 5.132812 -5.726562 4.9375 -5.824219 C 4.738281 -5.921875 4.550781 -5.980469 4.375 -6.003906 L 4.375 -6.417969 L 6.757812 -6.417969 L 6.757812 -6.015625 C 6.628906 -5.992188 6.457031 -5.917969 6.242188 -5.789062 C 6.03125 -5.664062 5.871094 -5.480469 5.769531 -5.246094 C 5.25 -4.050781 4.792969 -2.957031 4.390625 -1.972656 C 3.988281 -0.988281 3.683594 -0.261719 3.476562 0.203125 C 3.203125 0.808594 2.957031 1.285156 2.742188 1.625 C 2.527344 1.964844 2.320312 2.234375 2.117188 2.429688 C 1.917969 2.609375 1.734375 2.734375 1.570312 2.796875 C 1.410156 2.859375 1.242188 2.890625 1.066406 2.890625 C 0.730469 2.890625 0.464844 2.808594 0.269531 2.648438 C 0.078125 2.488281 -0.0195312 2.304688 -0.0195312 2.097656 Z "/>
</g>
</g>
</defs>
<g fill="rgb(22.745098%, 22.745098%, 26.666667%)" fill-opacity="1">
<use xlink:href="#glyph-0-0" x="30" y="32.226562"/>
<use xlink:href="#glyph-0-1" x="35" y="32.226562"/>
<use xlink:href="#glyph-0-2" x="43" y="32.226562"/>
<use xlink:href="#glyph-0-3" x="49" y="32.226562"/>
</g>
</svg>
